<svg id="Capa_1" enable-background="new 0 0 512 512" height="512" viewBox="0 0 512 512" width="512" xmlns="http://www.w3.org/2000/svg"><g><path d="m509.675 247.926c-.882-1.394-22.086-34.524-63.84-67.72-38.036-30.24-101.02-66.176-186.093-67.21-2.529-.065-4.953-.065-7.483 0-85.073 1.034-148.058 36.97-186.093 67.21-41.754 33.196-62.958 66.326-63.84 67.72-3.1 4.898-3.1 11.144 0 16.042.882 1.394 22.086 34.524 63.84 67.72 112.194 89.197 265.915 90.438 379.67 0 41.754-33.196 62.958-66.326 63.84-67.72 3.099-4.898 3.099-11.144-.001-16.042zm-140.675 8.021c0 61.141-48.81 111.09-109.51 112.941-37.326-19.41-78.107-53.997-68.694-110.475 7.959-47.754 51.92-51.466 65.204-51.466 14.483 0 28.368 6.173 38.251 17.575 7.936 9.148 10.749 17.372 10.749 31.425 0 18.196-14.804 33-33 33h-16c-4.962 0-9-4.038-9-9s4.038-9 9-9c8.284 0 15-6.716 15-15s-6.716-15-15-15c-21.505 0-39 17.495-39 39s17.495 39 39 39h16c34.738 0 63-28.262 63-63 0-21.094-5.36-36.33-17.914-50.884-3.099-3.791-24.421-28.116-61.086-28.116-37.846 0-85.381 20.044-94.796 76.534-5.127 30.761.784 59.288 16.928 84.28-21.631-20.597-35.132-49.658-35.132-81.814 0-62.309 50.691-113 113-113s113 50.692 113 113zm-335.604.001c27.113-35.881 66.905-68.831 110.669-88.886-41.453 52.094-41.422 125.716 0 177.771-43.685-20.019-83.503-52.935-110.669-88.885zm334.539 88.885c41.453-52.094 41.422-125.716 0-177.771 43.684 20.019 83.503 52.935 110.668 88.886-27.121 35.892-66.92 68.837-110.668 88.885z"/></g></svg>